<svg xmlns="http://www.w3.org/2000/svg" viewBox="0 0 50 50"><defs><style>.cls-1{fill:#2f75ec;}.cls-2{fill:#fff;fill-rule:evenodd;}</style></defs><title>mail</title><g id="Layer_2" data-name="Layer 2"><g id="Layer_1-2" data-name="Layer 1"><circle class="cls-1" cx="25" cy="25" r="25"/><path class="cls-2" d="M18,18H32a3.35,3.35,0,0,1,2.2.76l-.8.54L25,25l-2.2-1.49a.42.42,0,0,0-.15-.11l-6-4.1-.79-.54A3.11,3.11,0,0,1,18,18Zm-2.75,1.47.74.51,5.81,4L16,30.16l-.63.68a3.82,3.82,0,0,1-.65-2.18V21.33A3.84,3.84,0,0,1,15.22,19.42ZM33.35,30.78,27.48,24.4l-2.24,1.52-.07,0h-.29l-.11,0-2.22-1.51-5.9,6.39-.63.69a3.24,3.24,0,0,0,1.95.56H32A3.46,3.46,0,0,0,34,31.46Zm1.9-9.44v7.32a3.57,3.57,0,0,1-.63,2.18L34,30.15l-5.74-6.28L34,19.93l.75-.51A3.79,3.79,0,0,1,35.25,21.34Z"/></g></g></svg>