<svg xmlns="http://www.w3.org/2000/svg" viewBox="0 0 50 50"><defs><style>.cls-1{fill:#2aa3ef;}.cls-2{fill:#fff;fill-rule:evenodd;}</style></defs><title>twitter</title><g id="Layer_2" data-name="Layer 2"><g id="Layer_1-2" data-name="Layer 1"><circle class="cls-1" cx="25" cy="25" r="25"/><path class="cls-2" d="M35.26,18.64a8.59,8.59,0,0,1-2.42.66A4.19,4.19,0,0,0,34.69,17,8.45,8.45,0,0,1,32,18a4.21,4.21,0,0,0-7.28,2.87,3.72,3.72,0,0,0,.11,1,12,12,0,0,1-8.68-4.39,4.2,4.2,0,0,0,1.31,5.61,4.22,4.22,0,0,1-1.91-.52v0a4.22,4.22,0,0,0,3.37,4.13,4.42,4.42,0,0,1-1.1.14,4.25,4.25,0,0,1-.8-.07A4.21,4.21,0,0,0,21,29.7a8.5,8.5,0,0,1-6.24,1.74A12,12,0,0,0,33.17,21.36c0-.18,0-.36,0-.54a8.71,8.71,0,0,0,2.1-2.18Z"/></g></g></svg>