<svg xmlns="http://www.w3.org/2000/svg" viewBox="0 0 463.86 458.82"><defs><style>.cls-1{fill:#ff9059;}</style></defs><title>adopt-impact-3</title><g id="Layer_2" data-name="Layer 2"><g id="Layer_1-2" data-name="Layer 1"><path class="cls-1" d="M3.62,187.39Q2.29,265.33.68,342.93C.2,372.12-3.75,446.48,14.61,453.79c16,6.47,39.76,3.62,56.34,4.15,21.36.91,42.85,1,64.22.77a1180.75,1180.75,0,0,0,120.71-8.12C295,446,335,439,369.87,416.66c56.17-36,93.71-112.54,94-190.74s-37.15-154.54-93-190C333.6,12.19,290.55,6.23,248.53,3.08A1147.16,1147.16,0,0,0,22.88,8.78C14,10,7.1,19.32,7,30.37Z"/></g></g></svg>