<svg xmlns="http://www.w3.org/2000/svg" viewBox="0 0 192.8 189.6"><defs><style>.cls-1{fill:#fff;}.cls-2{fill:#2a3131;}</style></defs><title>adopt-icon</title><g id="Layer_2" data-name="Layer 2"><g id="Layer_1-2" data-name="Layer 1"><polygon class="cls-1" points="19.3 114.7 98 35 176.7 114.6 190.3 101.1 98 7.8 5.8 101.1 19.3 114.7"/><polygon class="cls-1" points="176.7 114.7 176.7 189.1 19.3 189.1 19.3 114.7 98 35 176.7 114.7"/><path class="cls-1" d="M120.4,136.4h0a17.43,17.43,0,0,1-6-10.4h0a16.55,16.55,0,0,0-32.6,0h0a17.43,17.43,0,0,1-6,10.4h0a16.35,16.35,0,0,0-6,12.8,16.56,16.56,0,0,0,16.6,16.6,16.83,16.83,0,0,0,6-1.1h0a16.09,16.09,0,0,1,5.8-1,15.39,15.39,0,0,1,6.1,1.1h0a15.55,15.55,0,0,0,5.7,1,16.56,16.56,0,0,0,16.6-16.6A16.84,16.84,0,0,0,120.4,136.4Z"/><path class="cls-1" d="M73.2,114.6a9.5,9.5,0,1,1-9.5-9.5A9.43,9.43,0,0,1,73.2,114.6Z"/><path class="cls-1" d="M92.7,94.1a9.5,9.5,0,1,1-9.5-9.5A9.5,9.5,0,0,1,92.7,94.1Z"/><path class="cls-1" d="M122.8,114.6a9.5,9.5,0,1,0,9.5-9.5A9.5,9.5,0,0,0,122.8,114.6Z"/><path class="cls-1" d="M103.3,94.1a9.5,9.5,0,1,0,9.5-9.5A9.56,9.56,0,0,0,103.3,94.1Z"/><path class="cls-2" d="M108.2,169.3a19.39,19.39,0,0,1-7.1-1.3c-.1,0-.2-.1-.3-.1a12,12,0,0,0-4.4-.7,13,13,0,0,0-4.6.8c-.2.1-.4.1-.6.2a21.87,21.87,0,0,1-6.7,1.1A20.78,20.78,0,0,1,71,132.7l.3-.3a13.22,13.22,0,0,0,4.5-7.7c0-.1.1-.3.1-.4a20.81,20.81,0,0,1,40.8,0c0,.2.1.3.1.5a10.74,10.74,0,0,0,1.5,4.1,13.39,13.39,0,0,0,3,3.6c.1.1.3.2.4.3a20.77,20.77,0,0,1,7.2,15.7,4.2,4.2,0,1,1-8.4,0,12.39,12.39,0,0,0-4.5-9.6l-.2-.2a20.87,20.87,0,0,1-7.2-12.2c0-.1-.1-.3-.1-.4a12.4,12.4,0,0,0-24.4,0,.37.37,0,0,1-.1.3,20.42,20.42,0,0,1-2.5,6.6,19.17,19.17,0,0,1-4.8,5.7l-.2.2a12.43,12.43,0,0,0,7.9,22,13.06,13.06,0,0,0,4.3-.8c.1,0,.3-.1.4-.1a20.92,20.92,0,0,1,7.2-1.2,21.7,21.7,0,0,1,6.9,1.1c.2,0,.3.1.5.2a12.34,12.34,0,0,0,13.2-2.7,4.17,4.17,0,0,1,5.9,5.9A20.92,20.92,0,0,1,108.2,169.3Z"/><path class="cls-2" d="M62,127.6a13.7,13.7,0,1,1,13.7-13.7,4.2,4.2,0,0,1-8.4,0,5.3,5.3,0,1,0-5.3,5.3,4.23,4.23,0,0,1,4.2,4.2A4.16,4.16,0,0,1,62,127.6Z"/><path class="cls-2" d="M81.6,107.1A13.7,13.7,0,1,1,95.3,93.4a4.2,4.2,0,0,1-8.4,0,5.3,5.3,0,1,0-5.3,5.3,4.2,4.2,0,0,1,0,8.4Z"/><path class="cls-2" d="M111.2,107.1a13.7,13.7,0,1,1,13.7-13.7,4.2,4.2,0,1,1-8.4,0,5.3,5.3,0,1,0-5.3,5.3,4.2,4.2,0,1,1,0,8.4Z"/><path class="cls-2" d="M130.7,127.6a13.7,13.7,0,1,1,13.7-13.7,4.2,4.2,0,1,1-8.4,0,5.3,5.3,0,1,0-5.3,5.3,4.23,4.23,0,0,1,4.2,4.2A4.29,4.29,0,0,1,130.7,127.6Z"/><path class="cls-2" d="M175,189.6H17.7a4.23,4.23,0,0,1-4.2-4.2V126.7a4.2,4.2,0,1,1,8.4,0v54.6h149V112.7L96.4,37.3,20.7,113.9a4.07,4.07,0,0,1-3,1.2,4.94,4.94,0,0,1-3-1.2L1.2,100.4a4.23,4.23,0,0,1,0-5.9L93.4,1.2a4.23,4.23,0,0,1,5.9,0l92.3,93.3a4.17,4.17,0,0,1-5.9,5.9L96.4,10.1,10,97.4l7.6,7.6L93.3,28.4a4.23,4.23,0,0,1,5.9,0L177.9,108a4,4,0,0,1,1.2,2.9v74.5A4,4,0,0,1,175,189.6Z"/></g></g></svg>