<svg xmlns="http://www.w3.org/2000/svg" viewBox="0 0 350.09 458.96"><defs><style>.cls-1{fill:#2bb2ad;}</style></defs><title>adopt-impact</title><g id="Layer_2" data-name="Layer 2"><g id="Layer_1-2" data-name="Layer 1"><path class="cls-1" d="M3.31,187.86Q2.07,265.8.64,343.4C.18,372.6-3,447,10.8,454.23c12,6.41,30,3.49,42.46,4,16.09.86,32.29.89,48.4.58a673.93,673.93,0,0,0,91-8.47c29.46-4.76,59.65-11.82,86-34.27,42.44-36.11,71-112.82,71.4-191S322.54,70.61,280.56,35.29c-28-23.6-60.45-29.43-92.12-32.45A653.25,653.25,0,0,0,18.36,9.21C11.64,10.45,6.43,19.79,6.29,30.84Z"/></g></g></svg>