<svg xmlns="http://www.w3.org/2000/svg" viewBox="0 0 761.51 882.21"><defs><style>.cls-1{fill:#008883;fill-rule:evenodd;}</style></defs><title>adopt-impact-shape</title><g id="Layer_2" data-name="Layer 2"><g id="Layer_1-2" data-name="Layer 1"><path class="cls-1" d="M218.5,2C248.89,13,280.69,21,301.45,29.07c40.22,15.7,84.12,30.27,122.6,49,22.21,10.8,41.58,23.87,64.92,32.59,20,7.48,39.37,22.07,56.4,33.55C673.05,230.92,748.08,363.57,760.83,495.8c5.31,55.31-21.52,107.47-46.25,155.08-20.82,40.08-43.27,79.65-80,110.87C576.5,811.2,419.39,872.08,333.32,881c-40.46,4.19-83-3.5-123.93-7.63C161.71,868.48,88.16,861.67,21.66,853,6.72,851-2.91,835.54.8,819.63L185.91,24.8C185.84,24.78,190.05-8.37,218.5,2Z"/></g></g></svg>