<svg xmlns="http://www.w3.org/2000/svg" viewBox="0 0 227.33 200.61"><defs><style>.cls-1{fill:#fff;}</style></defs><title>age-icon</title><g id="Layer_2" data-name="Layer 2"><g id="Layer_1-2" data-name="Layer 1"><path class="cls-1" d="M217.05,63.83a55.1,55.1,0,0,0-94.11-38.91L112.39,35.47,101.84,24.91A55.1,55.1,0,0,0,7.73,63.83c0,64.7,104.66,127.5,104.66,127.5S217.05,128.53,217.05,63.83Z"/><path d="M113.65,200.61a8.94,8.94,0,0,1-4.62-1.28C104.57,196.66,0,133.11,0,64.11A64.11,64.11,0,0,1,109.49,18.82L113.67,23l4.19-4.19A64.1,64.1,0,0,1,227.33,64.11c0,45.81-44.94,89-82.64,117.17a9,9,0,0,1-10.78-14.44c28.17-21,75.41-62.37,75.41-102.73A46.09,46.09,0,0,0,130.6,31.55L120,42.12a9,9,0,0,1-12.73,0L96.74,31.55A46.1,46.1,0,0,0,18,64.11c0,58.83,99.29,119.18,100.29,119.77a9,9,0,0,1-4.65,16.73Z"/><path d="M43.66,93.67a9,9,0,0,1-8.11-5.07c-4.21-8.66-6.34-16.9-6.34-24.49a34.86,34.86,0,0,1,34.9-34.88,9,9,0,1,1,0,18A16.85,16.85,0,0,0,47.23,64.11c0,4.84,1.52,10.43,4.53,16.62a9,9,0,0,1-8.1,12.94Z"/></g></g></svg>