<svg xmlns="http://www.w3.org/2000/svg" viewBox="0 0 262.46 259.19"><defs><style>.cls-1{fill:#fff;}.cls-2{fill:#2a3131;}</style></defs><title>cat-icon_2</title><g id="Layer_2" data-name="Layer 2"><g id="Layer_1-2" data-name="Layer 1"><path class="cls-1" d="M180.43,57,82,57,34,9V153h0a97.22,97.22,0,0,0,194.43,0c0-.06,0-.11,0-.17V9Z"/><path class="cls-2" d="M131.23,259.19A106.33,106.33,0,0,1,25,153.45c0-.16,0-.32,0-.48V9A9,9,0,0,1,40.38,2.64L85.75,48h94.7a9,9,0,1,1,0,18H82a9,9,0,0,1-6.36-2.64L43,30.75V152.53c0,.15,0,.3,0,.45a88.21,88.21,0,0,0,176.41.26c0-.15,0-.3,0-.43v-122L207.2,43a9,9,0,1,1-12.74-12.73L222.08,2.64A9,9,0,0,1,237.46,9l0,143.53c0,.16,0,.31,0,.44A106.34,106.34,0,0,1,131.23,259.19Z"/><path class="cls-2" d="M169.56,203.06a9,9,0,0,0-12.74,0,9.68,9.68,0,0,1-16.5-6,26.33,26.33,0,0,0,10.39-9.16l5.39-8c5.09-7.51,6.07-15.46,2.69-21.82s-10.49-10-19.55-10h-16c-9.06,0-16.19,3.64-19.57,10s-2.4,14.31,2.69,21.83l5.39,7.95a26.25,26.25,0,0,0,10.39,9.16,9.68,9.68,0,0,1-16.51,6,9,9,0,1,0-12.71,12.76,27.54,27.54,0,0,0,38.32.71,27.54,27.54,0,0,0,38.33-.72A9,9,0,0,0,169.56,203.06Zm-49.82-36.41a9.33,9.33,0,0,1,3.49-.52h16a9.28,9.28,0,0,1,3.47.52,9.39,9.39,0,0,1-1.52,3.18l-5.4,8c-2.86,4.23-6.26,4.25-9.13,0l-5.4-7.94A9.12,9.12,0,0,1,119.74,166.65Z"/><path class="cls-2" d="M171.07,123.83a13.67,13.67,0,0,1-9.61-4,13.63,13.63,0,0,1,0-19.09,14,14,0,0,1,19.16,0,13.51,13.51,0,0,1-9.55,23Z"/><path class="cls-2" d="M91.39,123.83a13.5,13.5,0,0,1-9.55-23c5-5,14.12-5,19.1,0a13.59,13.59,0,0,1,4,9.54,13.42,13.42,0,0,1-13.51,13.51Z"/><path class="cls-2" d="M179.5,168.64a9,9,0,0,1-1.22-17.93l73.93-10.26a9,9,0,0,1,2.48,17.84l-73.94,10.26A8.86,8.86,0,0,1,179.5,168.64Z"/><path class="cls-2" d="M253.46,201.51a8.84,8.84,0,0,1-1.25-.08l-73.93-10.27a9,9,0,1,1,2.47-17.85l73.94,10.28a9,9,0,0,1-1.23,17.92Z"/><path class="cls-2" d="M83,168.64a8.66,8.66,0,0,1-1.25-.09L7.77,158.29a9,9,0,0,1,2.48-17.84l73.94,10.26A9,9,0,0,1,83,168.64Z"/><path class="cls-2" d="M9,201.51a9,9,0,0,1-1.23-17.92l74-10.28a9,9,0,0,1,2.47,17.85L10.25,201.43A8.84,8.84,0,0,1,9,201.51Z"/></g></g></svg>