<svg xmlns="http://www.w3.org/2000/svg" viewBox="0 0 187.05 259.19"><defs><style>.cls-1{fill:#fff;}.cls-2{fill:#2a3131;}</style></defs><title>dog-icon</title><g id="Layer_2" data-name="Layer 2"><g id="Layer_1-2" data-name="Layer 1"><path class="cls-1" d="M135.07,65.11H49.45V12.73A41.72,41.72,0,0,0,7.74,54.45v150.1a49.34,49.34,0,0,0,84.52,34.6,49.34,49.34,0,0,0,84.52-34.6h0V54.45a41.72,41.72,0,0,0-41.71-41.72Z"/><path class="cls-2" d="M128.19,129.5a13.73,13.73,0,0,1-9.6-4,13.43,13.43,0,0,1-4-9.55,13.61,13.61,0,0,1,4-9.55,14,14,0,0,1,19.16,0,13.84,13.84,0,0,1,3.89,9.55,13.4,13.4,0,0,1-13.45,13.51Z"/><path class="cls-2" d="M58.9,129.5a13.51,13.51,0,0,1-9.55-23.06,13.93,13.93,0,0,1,19.1,0A13.51,13.51,0,0,1,58.9,129.5Z"/><path class="cls-2" d="M136.32,0a9,9,0,0,0-9,9V30.76a9,9,0,0,0,18,0V19.28A32.78,32.78,0,0,1,169,50.74V200.82a40.38,40.38,0,0,1-40.33,40.35,40,40,0,0,1-26.17-9.69V206.69a25.87,25.87,0,0,0,10.21-9l5.29-7.81c5-7.4,6-15.26,2.63-21.54s-10.37-9.89-19.3-9.89H85.71c-8.94,0-16,3.61-19.32,9.89S64,182.47,69,189.89l5.29,7.8a26.07,26.07,0,0,0,10.22,9v24.78A40.3,40.3,0,0,1,18,200.76v-150A32.78,32.78,0,0,1,41.72,19.28V61.39a9,9,0,0,0,9,9h85.59a9,9,0,1,0,0-18H59.74V9a9,9,0,0,0-9-9A50.79,50.79,0,0,0,0,50.74V200.81a58.43,58.43,0,0,0,58.35,58.38,57.81,57.81,0,0,0,35.17-11.8,58.35,58.35,0,0,0,93.53-46.57V50.74A50.79,50.79,0,0,0,136.32,0ZM82.51,176.91a9.44,9.44,0,0,1,3.2-.44h15.66a9.1,9.1,0,0,1,3.17.44,9,9,0,0,1-1.42,2.87l-5.29,7.81c-2.73,4-5.88,4-8.62,0l-5.28-7.79A9.1,9.1,0,0,1,82.51,176.91Z"/></g></g></svg>