<svg xmlns="http://www.w3.org/2000/svg" viewBox="0 0 348.18 278.65"><defs><style>.cls-1{fill:#008883;}</style></defs><title>dome-shape_1</title><g id="Layer_2" data-name="Layer 2"><g id="Layer_1-2" data-name="Layer 1"><path class="cls-1" d="M2,259.05A13.39,13.39,0,0,0,13.8,272.22a1072.68,1072.68,0,0,0,170,5.13c31.7-1.6,64.19-4.91,92.54-19,42.43-21.14,71.28-67.14,71.82-114.54S321.06,49.7,279.09,27.54C252.94,13.73,222.93,9.22,193.52,6.12Q148.2,1.32,102.6.32C86.5,0,70.3-.07,54.2.28,41.7.52,23.79-1.42,11.71,2.42-2.18,6.77.07,51.86.23,69.56q.45,47.1.81,94.3Z"/></g></g></svg>