<svg xmlns="http://www.w3.org/2000/svg" viewBox="0 0 179.12 175.1"><defs><style>.cls-1{fill:#2a3131;}</style></defs><title>donate-icon</title><g id="Layer_2" data-name="Layer 2"><g id="Layer_1-2" data-name="Layer 1"><path class="cls-1" d="M79.72,83.3a4.14,4.14,0,0,1-1.9-.5c-1.9-1.1-45.3-27.5-45.3-56.2A26.59,26.59,0,0,1,77.92,7.8l1.7,1.7,1.7-1.7a26.59,26.59,0,0,1,45.4,18.8c0,19-18.7,37-34.3,48.7a3.72,3.72,0,0,1-4.4-6c11.7-8.7,31.3-25.9,31.3-42.7a19.09,19.09,0,0,0-32.6-13.5l-4.4,4.4a3.68,3.68,0,0,1-5.3,0l-4.4-4.4a19.16,19.16,0,0,0-32.7,13.5c0,24.4,41.2,49.5,41.7,49.7a3.76,3.76,0,0,1,1.3,5.1A3.82,3.82,0,0,1,79.72,83.3Z"/><path class="cls-1" d="M50.62,38.9a3.89,3.89,0,0,1-3.4-2.1,24.06,24.06,0,0,1-2.6-10.2,14.29,14.29,0,0,1,4.2-10.2,14.52,14.52,0,0,1,10.3-4.2,3.69,3.69,0,0,1,3.7,3.7,3.76,3.76,0,0,1-3.7,3.7,6.88,6.88,0,0,0-5,2.1,7,7,0,0,0-2,5A15.67,15.67,0,0,0,54,33.6a3.77,3.77,0,0,1-1.7,5A10.1,10.1,0,0,1,50.62,38.9Z"/><path class="cls-1" d="M175.42,134.1a3.69,3.69,0,0,0,3.7-3.7V92.2a3.69,3.69,0,0,0-3.7-3.7h-20.6a3.69,3.69,0,0,0-3.7,3.7v40.5l-66.8,33.9a8,8,0,0,1-7.1,0l-69-35.1c-.2-.1-.8-.4-.4-1.3A19.78,19.78,0,0,1,32,125.3l26.2,13.1c.1,0,.2.1.3.1a8.63,8.63,0,0,0,3.6.8H109a3.69,3.69,0,0,0,3.7-3.7,3.76,3.76,0,0,0-3.7-3.7H62.12a1.22,1.22,0,0,1-1.2-1.2v-.2a21.31,21.31,0,0,1,20.8-16.3h27.2a3.89,3.89,0,0,0,3.4-2.1,23,23,0,0,1,20.5-12.9h7.9a3.7,3.7,0,0,0,0-7.4h-7.9a30.44,30.44,0,0,0-26.1,15h-25a29.27,29.27,0,0,0-22.2,10.3l-7.1-3.6a27.26,27.26,0,0,0-28.3,2.3A27,27,0,0,0,2,125.5c-.1.1-.1.2-.2.2-.3.4-.6.9-.9,1.4a8.23,8.23,0,0,0,3.7,11.2l69,35.1a14.85,14.85,0,0,0,13.8,0l63.4-32.2v3.4a3.69,3.69,0,0,0,3.7,3.7h20.6a3.69,3.69,0,0,0,3.7-3.7,3.76,3.76,0,0,0-3.7-3.7h-16.8V96.2h13.1v34.5A4,4,0,0,0,175.42,134.1Zm-126.2-14,6.4,3.2a36.11,36.11,0,0,0-1.7,4.6l-18.5-9.3A20.59,20.59,0,0,1,49.22,120.1Z"/></g></g></svg>