<svg xmlns="http://www.w3.org/2000/svg" viewBox="0 0 122.76 34.79"><defs><style>.cls-1{fill:#d8ccc5;}</style></defs><title>long-tape</title><g id="Layer_2" data-name="Layer 2"><g id="Layer_1-2" data-name="Layer 1"><path class="cls-1" d="M3.1,34.4c-1.8-.9-2.3-3.1-.4-5.8-2.3-2-1-3.5-2.7-5.5,0-2.6,3.5-4,1.7-6.2-1.2-5.6.6-9.2.1-11.6C1.1,1.8,2.4,0,1.7,0H119.4c-.8,0-.6,4.1,1.2,5.3-.3,2.8-.1,5.3-1.8,5.5.9,1,1.5,1.8,1.5,1.8s-.2,3.3-.9,4.4c-5.5,3.1-2.9,3.7,3.1,3,1.1-.1-1.7,2.6-.8,3.6a11,11,0,0,1-1.2,5.1c-1.1,3.2-3.1,5.3-1.2,5.3C120,33.9,5.3,35.5,3.1,34.4Z"/></g></g></svg>