<svg xmlns="http://www.w3.org/2000/svg" viewBox="0 0 427.5 642.17"><defs><style>.cls-1{fill:#ff9059;}</style></defs><title>Asset 1</title><g id="Layer_2" data-name="Layer 2"><g id="Layer_1-2" data-name="Layer 1"><path class="cls-1" d="M7.33,520.93c1.9,45.9,16.9,84.69,57.6,105.9,34.6,18.1,75.8,16.19,114.8,13.9q76.2-4.5,152.5-9.1c26.4-1.6,55.4-4.2,74.1-23,20.7-20.7,21.5-53.3,21.1-82.5Q425.18,385.58,423,245c-.8-51.8-2.7-107.1-32.4-149.6-21.1-30.2-54-50.1-87.5-65.4-35.8-16.3-74-28.5-113.3-29.9S109.93,9,79.33,33.63c-29.7,23.8-48.1,59.4-58,96.1s-11.9,75.1-13.9,113.1C5,288.23-2,333.43.53,378.63,2.83,424.12,5.43,474.32,7.33,520.93Z"/></g></g></svg>