<svg xmlns="http://www.w3.org/2000/svg" viewBox="0 0 168.3 156.5"><defs><style>.cls-1{fill:#fff;}.cls-2{fill:#2a3131;}</style></defs><title>paw-icon</title><g id="Layer_2" data-name="Layer 2"><g id="Layer_1-2" data-name="Layer 1"><path class="cls-1" d="M125.4,98.1h0a31.52,31.52,0,0,1-11.1-18.8v.1a30.28,30.28,0,0,0-59.6,0h0A29.38,29.38,0,0,1,51,89.5a29.76,29.76,0,0,1-7.4,8.7h0a30.26,30.26,0,0,0,19.3,53.6,30.75,30.75,0,0,0,11-2.1h0a31.05,31.05,0,0,1,10.6-1.8,29.7,29.7,0,0,1,11.2,2v-.1a30.24,30.24,0,0,0,29.7-51.7Z"/><path class="cls-1" d="M39.3,58.4A17.3,17.3,0,1,1,22,41.1,17.31,17.31,0,0,1,39.3,58.4Z"/><path class="cls-1" d="M74.9,21.1A17.3,17.3,0,1,1,57.6,3.8,17.31,17.31,0,0,1,74.9,21.1Z"/><path class="cls-1" d="M129.8,58.4a17.3,17.3,0,1,0,17.3-17.3A17.31,17.31,0,0,0,129.8,58.4Z"/><path class="cls-1" d="M94.2,21.1A17.3,17.3,0,1,0,111.5,3.8,17.31,17.31,0,0,0,94.2,21.1Z"/><path class="cls-2" d="M105.8,156.5a32.2,32.2,0,0,1-11.9-2.2c-.2,0-.3-.1-.5-.2a28.15,28.15,0,0,0-18.7.2,1.85,1.85,0,0,1-.7.2,33.94,33.94,0,0,1-11.3,1.9A34.48,34.48,0,0,1,40.4,95.6l.4-.4a23.34,23.34,0,0,0,6.3-7.5A26.21,26.21,0,0,0,50.3,79c0-.2.1-.4.1-.6a34.55,34.55,0,0,1,67.8,0,1.09,1.09,0,0,1,.1.5,26.21,26.21,0,0,0,3.2,8.7,25.48,25.48,0,0,0,6.3,7.4c.1.1.3.2.4.4a34.22,34.22,0,0,1,12.2,26.3,4.33,4.33,0,0,1-4.3,4.3,4.27,4.27,0,0,1-4.3-4.3,25.61,25.61,0,0,0-9.5-20c-.1-.1-.2-.1-.2-.2a34.47,34.47,0,0,1-8.1-9.6,35.9,35.9,0,0,1-4.1-11,4.33,4.33,0,0,1-.1-.5,26,26,0,0,0-51.2,0c0,.2-.1.3-.1.5a35,35,0,0,1-4.1,11,34.47,34.47,0,0,1-8.1,9.6c-.1.1-.2.2-.3.2a25.94,25.94,0,0,0,16.5,46,25,25,0,0,0,8.9-1.6.9.9,0,0,1,.5-.1,34,34,0,0,1,12.2-2.1,35.11,35.11,0,0,1,11.5,1.8,1.42,1.42,0,0,1,.6.2,25.72,25.72,0,0,0,9.4,1.8,26.09,26.09,0,0,0,22.1-12.2,4.27,4.27,0,1,1,7.2,4.6A33.71,33.71,0,0,1,105.8,156.5Z"/><path class="cls-2" d="M21.6,80.5A21.6,21.6,0,1,1,43.2,58.9a21,21,0,0,1-6.3,15.2,4.24,4.24,0,0,1-6-6,12.77,12.77,0,0,0,3.8-9.2A13.1,13.1,0,1,0,21.6,72a4.33,4.33,0,0,1,4.3,4.3A4.25,4.25,0,0,1,21.6,80.5Z"/><path class="cls-2" d="M57.2,43.2A21.6,21.6,0,1,1,78.8,21.6a21.39,21.39,0,0,1-6.3,15.3,4.24,4.24,0,0,1-6-6,12.94,12.94,0,0,0,3.8-9.2A13.1,13.1,0,1,0,57.2,34.8a4.33,4.33,0,0,1,4.3,4.3A4.23,4.23,0,0,1,57.2,43.2Z"/><path class="cls-2" d="M111.1,43.2a21.6,21.6,0,1,1,21.6-21.6,21.39,21.39,0,0,1-6.3,15.3,4.24,4.24,0,0,1-6-6,12.94,12.94,0,0,0,3.8-9.2,13.1,13.1,0,1,0-13.1,13.1,4.33,4.33,0,0,1,4.3,4.3A4.23,4.23,0,0,1,111.1,43.2Z"/><path class="cls-2" d="M146.7,80.5a21.6,21.6,0,1,1,21.6-21.6A21.39,21.39,0,0,1,162,74.2a4.24,4.24,0,0,1-6-6,12.94,12.94,0,0,0,3.8-9.2,13.1,13.1,0,1,0-13.1,13.1,4.33,4.33,0,0,1,4.3,4.3A4.1,4.1,0,0,1,146.7,80.5Z"/></g></g></svg>