<svg xmlns="http://www.w3.org/2000/svg" viewBox="0 0 352.69 243.27"><defs><style>.cls-1{fill:#fff;}.cls-2{fill:#2a3131;}</style></defs><title>paws</title><g id="Layer_2" data-name="Layer 2"><g id="Layer_1-2" data-name="Layer 1"><path class="cls-1" d="M319.61,152h0a31.5,31.5,0,0,1-20.19-8.31l.06.08a30.28,30.28,0,0,0-47.55,35.94h0A29.31,29.31,0,0,1,255.06,190a29.63,29.63,0,0,1-.66,11.41h0a30.26,30.26,0,0,0,47.72,31.12,30.85,30.85,0,0,0,7.51-8.3h0a31,31,0,0,1,7.37-7.83,29.81,29.81,0,0,1,10.14-5.16l-.06-.08A30.24,30.24,0,0,0,319.61,152Z"/><path class="cls-1" d="M227,172.24a17.3,17.3,0,1,1-24.23-3.38A17.3,17.3,0,0,1,227,172.24Z"/><path class="cls-1" d="M232.89,121a17.3,17.3,0,1,1-24.23-3.37A17.31,17.31,0,0,1,232.89,121Z"/><path class="cls-1" d="M299.18,117.67a17.3,17.3,0,1,0,3.38-24.23A17.32,17.32,0,0,0,299.18,117.67Z"/><path class="cls-1" d="M248.29,109.38a17.3,17.3,0,1,0,3.38-24.23A17.3,17.3,0,0,0,248.29,109.38Z"/><path class="cls-2" d="M339.18,210.41a32.2,32.2,0,0,1-10.82,5.42c-.16.12-.3.1-.52.14a26.38,26.38,0,0,0-8.17,4.29,26,26,0,0,0-6.63,7.15,1.85,1.85,0,0,1-.44.58,34.49,34.49,0,0,1-62.32-26.74l.08-.56a23.35,23.35,0,0,0,.51-9.78,26.35,26.35,0,0,0-2.7-8.87c-.12-.16-.16-.38-.28-.54A34.55,34.55,0,0,1,302,140.62a1.09,1.09,0,0,1,.38.34,26,26,0,0,0,7.79,5,25.69,25.69,0,0,0,9.49,2.1,1.51,1.51,0,0,1,.56.08,34.2,34.2,0,0,1,25.59,13.63,4.32,4.32,0,0,1-.84,6,4.26,4.26,0,0,1-6-.84,25.62,25.62,0,0,0-19.64-10.23c-.14,0-.22,0-.28,0a34.49,34.49,0,0,1-12.25-2.77,36.07,36.07,0,0,1-9.9-6.31c-.06-.08-.26-.18-.38-.34a26,26,0,0,0-40.85,30.87c.12.16.1.3.22.46a35,35,0,0,1,3.36,11.25,34.48,34.48,0,0,1-.67,12.54c0,.14,0,.28-.12.34a25.94,25.94,0,0,0,40.9,26.75,24.8,24.8,0,0,0,6.13-6.64.9.9,0,0,1,.34-.38,33.92,33.92,0,0,1,8.47-9,35.28,35.28,0,0,1,10.26-5.5,1.42,1.42,0,0,1,.6-.2,25.69,25.69,0,0,0,8.58-4.23A26.1,26.1,0,0,0,344,180.45a4.27,4.27,0,0,1,8.52-.67A33.72,33.72,0,0,1,339.18,210.41Z"/><path class="cls-2" d="M226.18,200.54a21.6,21.6,0,1,1,4.21-30.26,21,21,0,0,1,4.14,15.93,4.24,4.24,0,1,1-8.4-1.17,12.8,12.8,0,0,0-2.52-9.63,13.1,13.1,0,1,0-2.55,18.35,4.32,4.32,0,0,1,6,.84A4.24,4.24,0,0,1,226.18,200.54Z"/><path class="cls-2" d="M232.1,149.32a21.51,21.51,0,1,1,8.41-14.25,4.25,4.25,0,0,1-8.41-1.17,12.91,12.91,0,0,0-2.51-9.63A13.1,13.1,0,1,0,227,142.61a4.35,4.35,0,0,1,6,.84A4.25,4.25,0,0,1,232.1,149.32Z"/><path class="cls-2" d="M275.1,116.82a21.6,21.6,0,1,1,4.21-30.25,21.36,21.36,0,0,1,4.2,16,4.25,4.25,0,0,1-8.41-1.17,12.92,12.92,0,0,0-2.51-9.63A13.1,13.1,0,1,0,270,110.12a4.32,4.32,0,0,1,6,.84A4.24,4.24,0,0,1,275.1,116.82Z"/><path class="cls-2" d="M326,125.12a21.6,21.6,0,1,1,4.21-30.26,21.38,21.38,0,0,1,4.2,16A4.25,4.25,0,1,1,326,109.7a12.92,12.92,0,0,0-2.51-9.63,13.1,13.1,0,1,0-2.55,18.35,4.33,4.33,0,0,1,6,.83A4.11,4.11,0,0,1,326,125.12Z"/><path class="cls-1" d="M128,74h0a29.91,29.91,0,0,1-11.14-2.48,30.21,30.21,0,0,1-9-5.83l.06.08A30.28,30.28,0,0,0,60.35,101.7h0A29.17,29.17,0,0,1,63.49,112a29.57,29.57,0,0,1-.66,11.4h0a30.26,30.26,0,0,0,47.71,31.13,30.52,30.52,0,0,0,7.51-8.3h0a30.91,30.91,0,0,1,7.38-7.83,29.81,29.81,0,0,1,10.14-5.16l-.06-.08A30.24,30.24,0,0,0,128,74Z"/><path class="cls-1" d="M35.41,94.23a17.3,17.3,0,1,1-24.24-3.37A17.32,17.32,0,0,1,35.41,94.23Z"/><path class="cls-1" d="M41.32,43a17.3,17.3,0,1,1-24.23-3.37A17.3,17.3,0,0,1,41.32,43Z"/><path class="cls-1" d="M107.61,39.67A17.3,17.3,0,1,0,111,15.44,17.31,17.31,0,0,0,107.61,39.67Z"/><path class="cls-1" d="M56.72,31.38A17.3,17.3,0,1,0,60.09,7.14,17.3,17.3,0,0,0,56.72,31.38Z"/><path class="cls-2" d="M147.61,132.41a32.44,32.44,0,0,1-10.83,5.42c-.15.12-.29.1-.51.14a28.12,28.12,0,0,0-14.8,11.43,2,2,0,0,1-.44.59,34.1,34.1,0,0,1-7.87,8.32,34.48,34.48,0,0,1-54.45-35.06l.08-.56a23.19,23.19,0,0,0,.5-9.78A26.12,26.12,0,0,0,56.6,104c-.12-.16-.16-.38-.28-.54a34.55,34.55,0,0,1,54.09-40.88,1.09,1.09,0,0,1,.38.34,26.35,26.35,0,0,0,7.8,5,25.51,25.51,0,0,0,9.49,2.11,1.51,1.51,0,0,1,.56.08,34.22,34.22,0,0,1,25.59,13.63,4.32,4.32,0,0,1-.84,6,4.27,4.27,0,0,1-6-.84,25.62,25.62,0,0,0-19.64-10.23c-.14,0-.22,0-.28,0a34.49,34.49,0,0,1-12.25-2.77,36.07,36.07,0,0,1-9.9-6.31c-.06-.08-.26-.18-.38-.34a26,26,0,0,0-40.85,30.87c.12.16.1.3.22.46a34.89,34.89,0,0,1,3.36,11.25A34.48,34.48,0,0,1,67,124.4c0,.14,0,.28-.12.34a25.93,25.93,0,0,0,40.89,26.75,24.83,24.83,0,0,0,6.14-6.64.9.9,0,0,1,.34-.38,33.92,33.92,0,0,1,8.47-9,35,35,0,0,1,10.26-5.5,1.42,1.42,0,0,1,.6-.2,25.69,25.69,0,0,0,8.58-4.23,26.11,26.11,0,0,0,10.28-23.06,4.27,4.27,0,0,1,8.52-.67A33.72,33.72,0,0,1,147.61,132.41Z"/><path class="cls-2" d="M34.61,122.54a21.6,21.6,0,1,1,4.21-30.26A21,21,0,0,1,43,108.21,4.25,4.25,0,0,1,34.55,107,12.75,12.75,0,0,0,32,97.41a13.1,13.1,0,1,0-2.56,18.35,4.34,4.34,0,0,1,6,.83A4.27,4.27,0,0,1,34.61,122.54Z"/><path class="cls-2" d="M40.52,71.32a21.6,21.6,0,1,1,4.22-30.26,21.41,21.41,0,0,1,4.19,16,4.24,4.24,0,1,1-8.4-1.17A12.94,12.94,0,0,0,38,46.26a13.1,13.1,0,1,0-2.55,18.35,4.34,4.34,0,0,1,6,.84A4.23,4.23,0,0,1,40.52,71.32Z"/><path class="cls-2" d="M83.53,38.82A21.6,21.6,0,1,1,87.74,8.56a21.4,21.4,0,0,1,4.2,16,4.25,4.25,0,1,1-8.41-1.17A12.92,12.92,0,0,0,81,13.77a13.1,13.1,0,1,0-2.56,18.35,4.33,4.33,0,0,1,6,.84A4.24,4.24,0,0,1,83.53,38.82Z"/><path class="cls-2" d="M134.42,47.12a21.6,21.6,0,1,1,4.21-30.26,21.38,21.38,0,0,1,4.2,16,4.25,4.25,0,0,1-8.41-1.17,12.91,12.91,0,0,0-2.51-9.63,13.1,13.1,0,1,0-2.56,18.34,4.35,4.35,0,0,1,6,.84A4.12,4.12,0,0,1,134.42,47.12Z"/></g></g></svg>