<svg xmlns="http://www.w3.org/2000/svg" viewBox="0 0 142.01 131.74"><defs><style>.cls-1{fill:#060808;}</style></defs><title>petcard-icon</title><g id="Layer_2" data-name="Layer 2"><g id="Layer_1-2" data-name="Layer 1"><path d="M86.54,131.74a31.13,31.13,0,0,1-9.92-1.65,8.67,8.67,0,0,1-.9-.31,14.42,14.42,0,0,0-9.4,0,10.07,10.07,0,0,1-1,.33,30.77,30.77,0,0,1-29.44-52.9,13.37,13.37,0,0,0,3.24-3.83,12.46,12.46,0,0,0,1.55-4.22,9.21,9.21,0,0,1,.2-.91,30.8,30.8,0,0,1,60.37.21c.06.23.11.47.15.7a12.4,12.4,0,0,0,1.57,4.25,13.19,13.19,0,0,0,2.49,3.17,9.17,9.17,0,0,1,2,1.7,30.79,30.79,0,0,1-20.86,53.46Zm-3.82-18.61a12.88,12.88,0,0,0,16.63-12.21,12.67,12.67,0,0,0-4.66-9.82,31.24,31.24,0,0,1-7.38-8.71,30.7,30.7,0,0,1-3.63-9.79l-.07-.36a12.79,12.79,0,0,0-25.19,0c0,.21-.09.41-.13.61a31.07,31.07,0,0,1-3.57,9.51,31.67,31.67,0,0,1-7.5,8.84,12.6,12.6,0,0,0-4.55,9.73,12.88,12.88,0,0,0,17.25,12l.41-.14a32.24,32.24,0,0,1,21.2-.06A8.36,8.36,0,0,1,82.72,113.13Z"/><path class="cls-1" d="M30.62,44.85a15.31,15.31,0,1,1-15.3-15.32A15.31,15.31,0,0,1,30.62,44.85Z"/><path class="cls-1" d="M64.22,15.3A15.3,15.3,0,1,1,48.93,0,15.33,15.33,0,0,1,64.22,15.3Z"/><path class="cls-1" d="M111.4,44.85a15.31,15.31,0,1,0,15.31-15.32A15.31,15.31,0,0,0,111.4,44.85Z"/><path class="cls-1" d="M77.8,15.3A15.31,15.31,0,1,0,93.08,0,15.32,15.32,0,0,0,77.8,15.3Z"/></g></g></svg>