<svg xmlns="http://www.w3.org/2000/svg" viewBox="0 0 738.88 590.67"><defs><style>.cls-1{fill:#fff;}.cls-2{fill:#2a3131;}</style></defs><title>thank-you</title><g id="Layer_2" data-name="Layer 2"><g id="_ÎÓÈ_1" data-name="—ÎÓÈ_1"><path class="cls-1" d="M703.18,3.1,179,47.82a27.36,27.36,0,0,0-25,29.33l16,211.68a27.38,27.38,0,0,0,27.29,25.3h61a23.4,23.4,0,0,1,23.4,23.42l0,39.28a11.9,11.9,0,0,0,19.17,9.43L388.1,319a23.38,23.38,0,0,1,14.29-4.87H664.68a27.36,27.36,0,0,0,27-23.06l40.83-256.4A27.36,27.36,0,0,0,703.18,3.1Z"/><path class="cls-2" d="M295.68,393.76a16,16,0,0,1-15.92-15.94l0-39.27a19.41,19.41,0,0,0-19.4-19.42h-61a31.5,31.5,0,0,1-31.27-29l-16-211.67A31.46,31.46,0,0,1,180.7,44.84L704.84.12A31.35,31.35,0,0,1,738.48,36.3L697.65,292.7a31.22,31.22,0,0,1-31,26.43H404.39a19.49,19.49,0,0,0-11.85,4l-87.16,67.26A15.87,15.87,0,0,1,295.68,393.76ZM705.52,8.09,181.38,52.81a23.42,23.42,0,0,0-21.31,25l16,211.68a23.47,23.47,0,0,0,23.3,21.6h61a27.4,27.4,0,0,1,27.4,27.42l0,39.28a7.9,7.9,0,0,0,12.73,6.26l87.17-67.25a27.53,27.53,0,0,1,16.73-5.71H666.68a23.25,23.25,0,0,0,23.07-19.69L730.58,35A23.36,23.36,0,0,0,705.52,8.09Z"/><path class="cls-1" d="M137.65,409a9.22,9.22,0,0,0-5.76,10.26L65.38,479a9.68,9.68,0,0,0-6.87,0L31.73,489.1a9.75,9.75,0,0,0-6,11.35l-18.1,6.84A9.71,9.71,0,0,0,2,519.79L11.48,545A9.72,9.72,0,0,0,24,550.62l18.1-6.83a9.76,9.76,0,0,0,12,4.56l2.45-.93L64,556.61,74.68,585a7.57,7.57,0,0,0,9.25,4.57l.81-.29L88.12,588a11.51,11.51,0,0,0,6.74-14.58l-8.55-22.64h0L81.48,538a9.59,9.59,0,0,0,4.58-4.38L175.72,535a9.17,9.17,0,0,0,16.18-8.35L149.46,414.28A9.17,9.17,0,0,0,137.65,409Z"/><path class="cls-2" d="M149.08,414.39a9.68,9.68,0,0,0-12.46-5.63,9.77,9.77,0,0,0-6.12,10.54L64.41,478.71a10.16,10.16,0,0,0-6.92.09L30.7,488.91a10.23,10.23,0,0,0-6.4,11.51L6.6,507.1A10.22,10.22,0,0,0,.66,520.25l9.5,25.18a10.22,10.22,0,0,0,13.16,5.94L41,544.69a10.22,10.22,0,0,0,12.41,4.41l2.11-.8,7.15,8.85,10.68,28.3a8,8,0,0,0,9.88,4.87l4.21-1.57a12,12,0,0,0,7-15.23l-13.22-35a10.29,10.29,0,0,0,4.25-4.12l89.1,1.43a9.74,9.74,0,0,0,11.28,3.43,9.67,9.67,0,0,0,5.63-12.45Zm-11.76,2.19A3,3,0,0,1,139,415a3,3,0,0,1,1.48-.16,2.94,2.94,0,0,1,.8.24,3,3,0,0,1,1.56,1.66l42.43,112.41a3,3,0,0,1-1.73,3.84,3,3,0,0,1-3.85-1.74l-42.43-112.4A3,3,0,0,1,137.32,416.58Zm-56,167.33a1.34,1.34,0,0,1-1.71-.82l-11-29.23-6.46-8.05L75,540.94l13.16,34.87a5.3,5.3,0,0,1-3.1,6.69Zm-1.52-53a3.5,3.5,0,0,1-2,1.84L51.06,542.84a3.53,3.53,0,0,1-2.69-.08,3.49,3.49,0,0,1-1.84-2L31,499.7A3.49,3.49,0,0,1,31.1,497a3.55,3.55,0,0,1,2-1.85l26.79-10.11a3.52,3.52,0,0,1,4.53,2.05L79.9,528.19A3.51,3.51,0,0,1,79.81,530.89Zm91.91-1.8-85.06-1.37a10.14,10.14,0,0,0-.51-1.89L70.64,484.74a10.67,10.67,0,0,0-.91-1.82l63.13-56.75Zm-155.3,14L6.91,517.89A3.53,3.53,0,0,1,9,513.36l17.56-6.63,12,31.76L21,545.12a3.53,3.53,0,0,1-4.54-2Z"/><path class="cls-2" d="M190.81,460.79a3.64,3.64,0,0,0,2.88,2.32,3.55,3.55,0,0,0,1.81-.2L239,446.49a3.65,3.65,0,0,0,2.12-4.7,3.65,3.65,0,0,0-4.69-2.12l-43.5,16.42A3.65,3.65,0,0,0,190.81,460.79Z"/><path class="cls-2" d="M180.46,428.59l.21,0a3.6,3.6,0,0,0,1.81-.2,3.5,3.5,0,0,0,1.33-.87l27.95-28.82a3.64,3.64,0,0,0-2.67-6.18,3.56,3.56,0,0,0-2.56,1.1l-27.95,28.82a3.65,3.65,0,0,0,1.88,6.11Z"/><path class="cls-2" d="M248.21,495.3l-40-3.17a3.67,3.67,0,0,0-3.2,1.45,3.64,3.64,0,0,0,2.38,5.79l.25,0,40,3.16a3.49,3.49,0,0,0,1.57-.22,3.59,3.59,0,0,0,1.08-.64,3.64,3.64,0,0,0-2.08-6.4Z"/><path class="cls-2" d="M239.93,161.86l-9.61.24a2.16,2.16,0,0,1-2.21-2.11l-.15-6.43a2.16,2.16,0,0,1,2.1-2.22l35.15-.85a2.16,2.16,0,0,1,2.21,2.11l.15,6.43a2.16,2.16,0,0,1-2.1,2.21l-9.62.24a2.16,2.16,0,0,0-2.11,2.21l1.73,71.39a2.16,2.16,0,0,1-2.1,2.21l-7.28.18a2.17,2.17,0,0,1-2.21-2.11L242.14,164A2.16,2.16,0,0,0,239.93,161.86Z"/><path class="cls-2" d="M275.59,150.24l7.28-.18a2.16,2.16,0,0,1,2.21,2.11l.74,30.53a2.17,2.17,0,0,0,2.22,2.11l11.56-.28a2.17,2.17,0,0,0,2.11-2.22L301,151.78a2.16,2.16,0,0,1,2.1-2.21l7.28-.18a2.16,2.16,0,0,1,2.21,2.11l2,82.14a2.16,2.16,0,0,1-2.11,2.21l-7.28.18a2.16,2.16,0,0,1-2.21-2.11l-.89-36.62a2.16,2.16,0,0,0-2.21-2.11l-11.57.28a2.16,2.16,0,0,0-2.1,2.21l.89,36.63a2.16,2.16,0,0,1-2.11,2.21l-7.28.18a2.16,2.16,0,0,1-2.21-2.11l-2-82.14A2.16,2.16,0,0,1,275.59,150.24Z"/><path class="cls-2" d="M336.18,212.12l-2.45,21.35a2.17,2.17,0,0,1-2.1,1.92l-7.35.18a2.17,2.17,0,0,1-2.2-2.46l11.35-82.46a2.17,2.17,0,0,1,2.09-1.87l12.76-.31a2.16,2.16,0,0,1,2.17,1.75L366.32,232a2.16,2.16,0,0,1-2.07,2.57l-7.72.19a2.16,2.16,0,0,1-2.18-1.78l-3.79-21.26a2.16,2.16,0,0,0-2.18-1.78l-10.1.24A2.17,2.17,0,0,0,336.18,212.12Zm9.88-12.77a2.17,2.17,0,0,0,2.08-2.53c-2.63-15.41-4.81-28.66-5.89-37.29h-.44c-.17,6.55-2.27,23.79-3.88,37.54a2.16,2.16,0,0,0,2.2,2.41Z"/><path class="cls-2" d="M373.5,232.21l-2-82.14a2.15,2.15,0,0,1,2.11-2.21l9.77-.24a2.15,2.15,0,0,1,2.11,1.52c4.65,15.17,16,55.87,17.17,61.26h.17c-.84-11-1.21-23.2-1.55-37.36l-.58-23.68a2.16,2.16,0,0,1,2.11-2.21l6.46-.16a2.16,2.16,0,0,1,2.21,2.11l2,82.14a2.16,2.16,0,0,1-2.1,2.21l-9.26.22a2.14,2.14,0,0,1-2.12-1.54c-4.33-14.65-16.44-58.53-17.7-63.31h-.13c.86,10.43,1.23,23,1.61,38.6l.59,24.52a2.16,2.16,0,0,1-2.1,2.22l-6.55.16A2.16,2.16,0,0,1,373.5,232.21Z"/><path class="cls-2" d="M425.75,146.59l7.09-.17a2.16,2.16,0,0,1,2.22,2.1l.92,38h.13c3.11-8.15,10.42-26.8,15.26-39.23a2.13,2.13,0,0,1,2-1.38l8-.2a2.17,2.17,0,0,1,2,3l-13.51,30.38a2.11,2.11,0,0,0-.06,1.6L467,229.26a2.16,2.16,0,0,1-2,2.88l-8,.2a2.16,2.16,0,0,1-2.1-1.47l-11.24-33.46a2.16,2.16,0,0,0-4-.21l-3,6.56a2.08,2.08,0,0,0-.2,1l.63,25.95a2.16,2.16,0,0,1-2.1,2.22l-7.1.17a2.16,2.16,0,0,1-2.21-2.11l-2-82.14A2.16,2.16,0,0,1,425.75,146.59Z"/><path class="cls-2" d="M501.11,231.27a2.17,2.17,0,0,1-2.22-2.11l-.7-29.16a8,8,0,0,0-.51-2.67L481.3,148a2.16,2.16,0,0,1,2-2.84l8.21-.2a2.16,2.16,0,0,1,2.13,1.56c4.06,14.25,8.66,30.41,10.19,38.85H504c1.45-9.11,5.25-25.28,8.36-39.28a2.18,2.18,0,0,1,2.06-1.69l7.7-.18a2.16,2.16,0,0,1,2.13,2.74L510,197.84a1.42,1.42,0,0,0,0,.2,13.15,13.15,0,0,0-.17,2.9l.68,27.94a2.16,2.16,0,0,1-2.11,2.21Z"/><path class="cls-2" d="M569.15,165.34l1,41.72c.39,16-6.13,23.9-20,24.23s-19.7-7.77-20.07-23.07l-1-41.95c-.39-15.77,7.07-23.58,19.68-23.89C561.69,142.07,568.77,150,569.15,165.34Zm-28.32-.24,1.07,44.06c.2,8.26,3.28,11.77,8.5,11.64,5.58-.14,8.19-3.6,8-12.32l-1.06-43.84c-.19-7.83-2.84-11.82-8.59-11.68C543.31,153.09,540.63,156.9,540.83,165.1Z"/><path class="cls-2" d="M587.84,142.65a2.16,2.16,0,0,1,2.21,2.11l1.56,64.2c.16,6.67,2.51,10.74,8.23,10.6s7.69-4.46,7.53-10.94l-1.56-64.25a2.16,2.16,0,0,1,2.1-2.21l7.32-.18a2.16,2.16,0,0,1,2.21,2.11L619,208c.33,13.53-5.57,21.72-19.11,22-13,.32-19.52-6.66-19.87-21L578.46,145a2.14,2.14,0,0,1,2.1-2.21Z"/><path class="cls-2" d="M637,198.38a2.16,2.16,0,0,1-2.21-2l-2.08-40.16-.3-12.44a2.17,2.17,0,0,1,2.11-2.22l8.21-.2a2.17,2.17,0,0,1,2.21,2.11l.3,12.39-.08,40.27a2.16,2.16,0,0,1-2.11,2.15Zm-2.23,27.48-.25-10.19a2.16,2.16,0,0,1,2.11-2.21l7.39-.18a2.15,2.15,0,0,1,2.21,2.11l.25,10.18a2.16,2.16,0,0,1-2.11,2.22L637,228A2.16,2.16,0,0,1,634.77,225.86Z"/></g></g></svg>