<svg xmlns="http://www.w3.org/2000/svg" viewBox="0 0 162.28 197.1"><defs><style>.cls-1{fill:#fff;}.cls-2{fill:#2a3131;}</style></defs><title>volunteer-icon</title><g id="Layer_2" data-name="Layer 2"><g id="Layer_1-2" data-name="Layer 1"><path class="cls-1" d="M150.6,68.5a14.53,14.53,0,0,0-19.8,5.3L120,92.5V35.2a14.5,14.5,0,0,0-29,0V18.8a14.5,14.5,0,0,0-29,0v4.1a14.5,14.5,0,0,0-29,0V35.2a14.5,14.5,0,0,0-29,0v99.6a57.88,57.88,0,0,0,108.1,28.8l.1.1,43.5-75.4A14.21,14.21,0,0,0,150.6,68.5Z"/><path class="cls-1" d="M76.3,138.6h0a10.84,10.84,0,0,1-2.6-3,11.42,11.42,0,0,1-1.3-3.5h0a10.57,10.57,0,0,0-20.8,0h0a9.32,9.32,0,0,1-1.3,3.5,9.42,9.42,0,0,1-2.6,3h0a10.51,10.51,0,0,0,6.7,18.6,8.57,8.57,0,0,0,3.6-.7h0a11.21,11.21,0,0,1,7.8,0h0a11,11,0,0,0,3.6.7,10.5,10.5,0,0,0,10.5-10.5A10,10,0,0,0,76.3,138.6Z"/><path class="cls-2" d="M69.6,160.6a16.09,16.09,0,0,1-4.8-.8c-.1,0-.3-.1-.4-.1a6.94,6.94,0,0,0-4.5,0c-.2.1-.3.1-.5.2a16.09,16.09,0,0,1-4.8.8,14.85,14.85,0,0,1-9.5-26.3,9.34,9.34,0,0,0,1.6-1.8,6,6,0,0,0,.7-2c0-.1.1-.3.1-.4a14.89,14.89,0,0,1,29.2.1c0,.1.1.2.1.3a5,5,0,0,0,.8,2,4.43,4.43,0,0,0,1.2,1.5,3.92,3.92,0,0,1,1,.8,14.86,14.86,0,0,1,4.8,10.9A15.14,15.14,0,0,1,69.6,160.6Zm-1.9-9a6.17,6.17,0,0,0,8-5.9,6,6,0,0,0-2.2-4.7,14.81,14.81,0,0,1-3.6-4.2,14.27,14.27,0,0,1-1.8-4.7v-.2a6.2,6.2,0,0,0-12.2,0,.37.37,0,0,1-.1.3,16,16,0,0,1-1.7,4.6,16.81,16.81,0,0,1-3.6,4.3,6,6,0,0,0-2.2,4.7,6.23,6.23,0,0,0,8.3,5.8c.1,0,.1,0,.2-.1a14.9,14.9,0,0,1,10.2,0A.82.82,0,0,1,67.7,151.6Z"/><path class="cls-2" d="M42.6,118.6a7.4,7.4,0,1,1-7.4-7.4A7.38,7.38,0,0,1,42.6,118.6Z"/><path class="cls-2" d="M58.8,104.4A7.4,7.4,0,1,1,51.4,97,7.38,7.38,0,0,1,58.8,104.4Z"/><path class="cls-2" d="M81.5,118.6a7.4,7.4,0,1,0,7.4-7.4A7.38,7.38,0,0,0,81.5,118.6Z"/><path class="cls-2" d="M65.3,104.4A7.4,7.4,0,1,0,72.7,97,7.38,7.38,0,0,0,65.3,104.4Z"/><path class="cls-2" d="M152.8,64.7a18.39,18.39,0,0,0-9.4-2.5,18.81,18.81,0,0,0-16.3,9.4l-2.7,4.7V35.2a18.78,18.78,0,0,0-18.8-18.8,18.44,18.44,0,0,0-10.1,3v-.6a18.82,18.82,0,0,0-35-9.6A19.06,19.06,0,0,0,47.7,4.1,18.8,18.8,0,0,0,29.2,19.6,18.73,18.73,0,0,0,0,35.2v99.6a62.29,62.29,0,0,0,115.8,31.9,5.55,5.55,0,0,0,.6-.8l43.5-75.4A19.17,19.17,0,0,0,152.8,64.7Zm-.7,21.4-43,74.5a5.55,5.55,0,0,0-.6.8A53.58,53.58,0,0,1,8.4,134.8V35.2a10.1,10.1,0,0,1,20.2,0V81.9a4.3,4.3,0,0,0,8.6,0v-59a10.1,10.1,0,0,1,20.2,0v59a4.3,4.3,0,1,0,8.6,0V18.8a10.1,10.1,0,0,1,20.2,0V81.9a4.3,4.3,0,0,0,8.6,0V35.2a10.1,10.1,0,1,1,20.2,0V92.5a4.29,4.29,0,0,0,3.2,4.2,4.37,4.37,0,0,0,4.9-2L133.9,76a10.09,10.09,0,0,1,13.9-3.7A9.77,9.77,0,0,1,152.1,86.1Z"/></g></g></svg>