<svg xmlns="http://www.w3.org/2000/svg" viewBox="0 0 458.96 350.09"><defs><style>.cls-1{fill:#ff9059;}</style></defs><title>about-header-shape_1</title><g id="Layer_2" data-name="Layer 2"><g id="Layer_1-2" data-name="Layer 1"><path class="cls-1" d="M271.1,3.31Q193.16,2.07,115.55.64C86.36.18,12-3,4.73,10.8c-6.41,12-3.49,30-4,42.46C-.1,69.35-.13,85.55.17,101.66a675.57,675.57,0,0,0,8.48,91c4.76,29.46,11.82,59.65,34.27,86,36.11,42.44,112.82,71,191,71.4s154.42-27.54,189.74-69.52c23.59-28,29.43-60.45,32.45-92.12a653.25,653.25,0,0,0-6.37-170.08c-1.24-6.72-10.58-11.93-21.63-12.07Z"/></g></g></svg>