<svg xmlns="http://www.w3.org/2000/svg" viewBox="0 0 199.58 498.3"><defs><style>.cls-1{fill:#2a3131;}</style></defs><title>arrow-right</title><g id="Layer_2" data-name="Layer 2"><g id="Layer_1-2" data-name="Layer 1"><path class="cls-1" d="M0,5.86,3.82,0c2.81,1.85,5.61,3.7,8.35,5.69L8.09,11.43C5.48,9.51,2.77,7.62,0,5.86Z"/><path class="cls-1" d="M172.33,460.86A151.86,151.86,0,0,0,180.51,443l6.55,2.51a152.9,152.9,0,0,1-8.63,18.68ZM16.2,17.31l4.24-5.59c5.3,4,10.7,8.34,15.85,12.85l-4.56,5.28C26.61,25.44,21.46,21.25,16.2,17.31ZM183.83,433.69a175.44,175.44,0,0,0,4.94-19.15l6.87,1.33a186.07,186.07,0,0,1-5.12,19.85ZM39.12,36.42l4.73-5.13c4.93,4.48,9.78,9.32,14.53,14.18l-5.05,4.82C48.74,45.58,43.92,40.84,39.12,36.42Zm21,21.18,5.18-4.76c4.48,5,9,10.13,13.27,15.39l-5.41,4.42C69,67.48,64.58,62.48,60.14,57.6ZM190.47,404.87a186.12,186.12,0,0,0,1.86-19.73l7,.32c-.29,6.81-1,13.66-1.94,20.39ZM79.44,80.48,85,76.22c4,5.23,8.18,10.75,12,16.37l-5.77,4C87.45,91.08,83.44,85.62,79.44,80.48Zm113,294.82q0-9.72-.84-19.81l7-.64c.6,6.92.85,13.74.94,20.41ZM96.9,104.77l5.81-3.92c3.7,5.46,7.4,11.24,10.91,17.09l-6,3.68C104.14,115.86,100.6,110.24,96.9,104.77Zm93.67,240.78c-.71-6.33-1.75-13-3-19.65l6.86-1.33c1.33,6.86,2.31,13.63,3.09,20.16ZM112.76,130.18l6.07-3.49c3.35,5.7,6.71,11.71,9.85,17.7l-6.14,3.3C119.4,141.7,116.11,135.88,112.76,130.18Zm14.39,26.37,6.18-3.21c3,5.93,6,12,8.94,18.13l-6.37,3C133.08,168.43,130.13,162.38,127.15,156.55Zm58.43,159.53c-1.31-6.23-2.94-12.76-4.71-19.36l6.78-1.83c1.84,6.79,3.41,13.45,4.76,19.77ZM140.2,183.61l6.41-2.86c2.73,6,5.43,12.28,8,18.57L148.18,202C145.6,195.8,142.9,189.55,140.2,183.61Zm38,103.44c-1.81-6.15-3.66-12.39-5.81-19.16l6.68-2.12c2.18,6.87,4.16,13.17,5.88,19.36ZM152,211.25l6.51-2.58c2.45,6.13,5,12.45,7.29,18.84L159.23,230C156.81,223.65,154.42,217.39,152,211.25Zm17.28,47.14c-.41-1.13-.73-2.29-1.14-3.42-1.79-5.2-3.58-10.4-5.46-15.57l6.58-2.4c1.85,5.08,3.67,10.37,5.49,15.67.41,1.13.73,2.29,1.14,3.42Z"/><path class="cls-1" d="M161.78,477.47c1.92-2.61,3.71-5.29,5.47-8.06l6,3.8a98,98,0,0,1-5.87,8.41Z"/><path class="cls-1" d="M147.55,498.3c4.61-11.89,8.79-27.89,8.92-40.07l10.1,18.67,19.77,7.81C174.23,486.24,158.77,492.3,147.55,498.3Z"/></g></g></svg>