<svg xmlns="http://www.w3.org/2000/svg" viewBox="0 0 316.87 1263.8"><defs><style>.cls-1{fill:#2a3131;}</style></defs><title>center-arrow</title><g id="Layer_2" data-name="Layer 2"><g id="Layer"><path class="cls-1" d="M294.34,1.48,308.27,0c.71,6.67,1.39,13.4,2,20l-14,1.29C295.71,14.76,295,8.09,294.34,1.48Z"/><path class="cls-1" d="M3.55,700.64c.24-1,.49-2,.74-3a127,127,0,0,1,9.83-26.71l12.46,6.41a113.37,113.37,0,0,0-8.71,23.79c-1,4-1.9,8.07-2.52,11.87L1.52,710.71C2.05,707.46,2.74,704.07,3.55,700.64ZM0,731.86l14-.47a56,56,0,0,0,5.82,24.09,44.13,44.13,0,0,0,5.57,8.3l-10.7,9.06a58.46,58.46,0,0,1-7.32-10.91A69.9,69.9,0,0,1,0,731.86Zm26.44-78.81a63.41,63.41,0,0,1,8.91-8,59.7,59.7,0,0,1,30.43-11.27l1.26,14a45.92,45.92,0,0,0-23.4,8.61,49.17,49.17,0,0,0-6.94,6.21ZM31.79,787l7-12.15a63.43,63.43,0,0,0,17.05,6.67,72.71,72.71,0,0,0,17.46,1.95l.12,14a86.78,86.78,0,0,1-20.82-2.32A77.61,77.61,0,0,1,31.79,787ZM87.57,635.19c.76.16,1.51.33,2.26.51a91.44,91.44,0,0,1,36.19,18l-8.83,10.88a77.45,77.45,0,0,0-30.62-15.22c-.63-.15-1.24-.29-1.85-.41ZM91.16,781a103.45,103.45,0,0,0,33.21-16.28l8.17,11.39c-12.24,8.78-24.93,15-37.73,18.42Zm38.62-103.44L141,669.13c8,10.63,14.27,22.79,19.09,37.17l-13.29,4.45C142.43,697.83,136.88,687,129.78,677.58ZM298,41l14-1.11c1.05,13.16,1.95,26.55,2.66,39.79l-14,.76C300,67.31,299.06,54.05,298,41Zm-159,711.71c4.79-4.41,9.57-9.28,14.47-14.76-.54-3-1.12-6-1.74-8.79l11.34-2.48c.67-.82,1.33-1.64,2-2.47L176.06,733c-1.68,2.09-3.37,4.16-5.09,6.22-.85,1-1.7,2-2.54,3,1.11,7.26,2.06,15.19,2.88,24.09l-13.95,1.3c-.39-4.19-.81-8.14-1.25-11.9q-3.78,3.84-7.56,7.32ZM301.59,100.18l14-.57c.54,13.21.91,26.62,1.11,39.87l-14,.2C302.49,126.56,302.12,113.27,301.59,100.18Zm1.26,59.27,14,0c0,13.25-.13,26.67-.44,39.88l-14-.33C302.73,185.88,302.88,172.58,302.85,159.45ZM176.91,708.69c7.44-10.31,14.61-21.31,21.31-32.7l12.08,7.11c-6.92,11.76-14.33,23.13-22,33.79Zm-18,78.53,14-1c.92,13.23,1.6,26.66,2,39.92l-14,.44C160.51,813.52,159.84,800.26,158.93,787.22Zm142.89-568.5,14,.52c-.49,13.22-1.15,26.62-2,39.83l-14-.87C300.67,245.1,301.33,231.82,301.82,218.72ZM161.34,846.32l14-.17c.16,13.26.06,26.7-.28,40l-14-.37C161.41,872.67,161.5,859.4,161.34,846.32Zm46.43-187.39c6-11.19,11.69-23.06,17-35.26l12.84,5.62c-5.48,12.53-11.37,24.72-17.49,36.23Zm90.71-381,14,1.06c-1,13.19-2.19,26.55-3.53,39.73L295,317.28C296.32,304.22,297.49,291,298.48,277.91Zm-5.62,59,13.92,1.6c-1.51,13.14-3.22,26.45-5.07,39.56l-13.88-2C289.67,363.14,291.36,350,292.86,336.93ZM160.37,905.46l14,.63c-.59,13.24-1.45,26.66-2.55,39.88l-14-1.15C158.94,931.77,159.78,918.53,160.37,905.46Zm72-299.9c4.67-11.76,9.16-24.19,13.35-36.94L259,573c-4.27,13-8.86,25.71-13.64,37.74Zm52.59-209.88,13.85,2.14c-2,13.1-4.25,26.33-6.61,39.34l-13.79-2.51C280.73,421.77,282.93,408.66,284.94,395.68ZM251.59,549.85c3.62-12.09,7.11-24.87,10.39-38l13.6,3.4c-3.33,13.32-6.89,26.31-10.57,38.6Zm23.15-95.78,13.76,2.69c-2.65,13.55-5.43,26.69-8.26,39.07l-13.66-3.14C269.38,480.47,272.13,467.48,274.74,454.07ZM156,964.45l14,1.43c-1.35,13.21-3,26.56-4.8,39.67l-13.88-1.94C153.12,990.66,154.71,977.49,156,964.45Zm-44.1,212c4-12.47,7.77-25.18,11.28-37.79l13.5,3.75c-3.55,12.78-7.4,25.67-11.43,38.3Zm36.45-153.35,13.84,2.21c-2.08,13.09-4.45,26.33-7,39.34l-13.75-2.72C144,1049.09,146.33,1036,148.39,1023.11Zm-20.07,96.51c1.65-6.4,3.26-12.91,4.78-19.34l0-.15c1.48-6.22,2.92-12.57,4.3-18.89l13.69,3c-1.4,6.45-2.91,12.87-4.39,19.29s-3.18,13.11-4.85,19.59Z"/><path class="cls-1" d="M99.1,1214.13c2.25-6.22,4.47-12.53,6.59-18.76l13.27,4.52c-2.15,6.31-4.4,12.71-6.68,19Z"/><path class="cls-1" d="M87.23,1263.8c.34-25.47-3.1-58.56-11.42-81.46l32.1,27.9,42.51.91C128.87,1222.52,104.09,1244.71,87.23,1263.8Z"/></g></g></svg>