<svg xmlns="http://www.w3.org/2000/svg" viewBox="0 0 186.95 469.07"><defs><style>.cls-1{fill:#2a3131;}</style></defs><title>last-arrow</title><g id="Layer_2" data-name="Layer 2"><g id="Layer"><path class="cls-1" d="M163.46,443.73c0-6.63-.06-13.34-.15-20l7-.09c.08,6.64.13,13.39.15,20Zm-.31-29.94c-.12-6.6-.28-13.31-.47-20l7-.21c.2,6.68.36,13.42.48,20Zm-.8-29.93c-.23-6.65-.5-13.36-.81-19.95l7-.32c.3,6.61.58,13.35.81,20Zm-1.3-29.92c-.34-6.61-.72-13.32-1.14-19.93l7-.44c.41,6.64.8,13.37,1.14,20Zm-1.8-29.88c-.45-6.64-.95-13.34-1.47-19.91l7-.56c.52,6.6,1,13.33,1.48,20ZM49.72,311.67l-.65-7a34.3,34.3,0,0,0,16.75-6.49l4,5.74A41.71,41.71,0,0,1,49.72,311.67Zm-11-.62a42.54,42.54,0,0,1-19.12-10l4.64-5.24a35.49,35.49,0,0,0,15.93,8.37Zm39.2-13.91-4.92-5a97,97,0,0,0,12.13-15L91,281.09A104.88,104.88,0,0,1,77.93,297.14Zm79-2.94c-.56-6.57-1.17-13.26-1.8-19.88l7-.67c.64,6.65,1.25,13.36,1.82,20Zm-144.58-1a57,57,0,0,1-8.55-16.35q-.44-1.32-.81-2.64l6.73-1.92c.23.8.47,1.59.73,2.38A50.14,50.14,0,0,0,18,289Zm84-20.73-6-3.6c1-1.64,1.94-3.29,2.87-4.91l7.06-12.37,6.08,3.47-7.06,12.37C98.4,269.11,97.41,270.79,96.4,272.48Zm57.77-8.09c-.67-6.59-1.39-13.27-2.14-19.84l7-.79c.74,6.6,1.47,13.3,2.14,19.92ZM.89,264A97.15,97.15,0,0,1,0,250.37c0-2.23.06-4.6.19-7l7,.37C7.06,246,7,248.26,7,250.37A91.07,91.07,0,0,0,7.82,263Zm110.48-17.57-6.08-3.47,9.91-17.37,6.08,3.47Zm39.49-11.7c-.76-5.64-1.93-11.47-5.28-16-.19-.25-.39-.5-.6-.74l5.28-4.59c.33.37.64.76.93,1.15,4.32,5.8,5.76,13,6.61,19.22ZM8,233.93l-7-.75c.37-3.4.83-7,1.49-11.73.38-2.74.78-5.49,1.19-8.23l6.92,1c-.4,2.72-.8,5.45-1.18,8.17C8.79,227.05,8.34,230.6,8,233.93Zm118.25-13.59-6.07-3.48c1.68-2.91,3.56-5.93,6.55-8A15.68,15.68,0,0,1,140.32,207l-2,6.71a8.66,8.66,0,0,0-7.58.86C128.92,215.83,127.57,218,126.23,220.34ZM12.14,204.4l-6.91-1.1c1-6.59,2.19-13.25,3.37-19.79l6.89,1.25C14.32,191.25,13.19,197.86,12.14,204.4ZM17.32,175l-6.87-1.32c1.25-6.53,2.59-13.15,4-19.68l6.84,1.47C19.9,161.91,18.57,168.48,17.32,175Zm6.1-29.26-6.83-1.54c1.46-6.5,3-13.07,4.6-19.54l6.8,1.68C26.4,132.73,24.87,139.25,23.42,145.71Zm7-29.06-6.78-1.75c1.66-6.47,3.42-13,5.21-19.38l6.74,1.89C33.82,103.75,32.08,110.23,30.43,116.65Zm7.91-28.82-6.72-2c1.87-6.41,3.82-12.88,5.81-19.21l6.68,2.1C42.13,75,40.19,81.46,38.34,87.83Zm8.81-28.56L40.49,57.1c2.06-6.33,4.22-12.73,6.42-19l6.61,2.3C51.33,46.64,49.19,53,47.15,59.27ZM56.85,31l-6.59-2.37c2.27-6.28,4.62-12.61,7-18.81l6.53,2.51C61.44,18.48,59.09,24.76,56.85,31ZM67.43,3,60.92.46,61.1,0l6.51,2.59Z"/><path class="cls-1" d="M166.82,469.07c4.48-11.91,12.09-26.68,20.13-35.81l-20,7.13L147,433.08C155,442.29,162.45,457.12,166.82,469.07Z"/></g></g></svg>