<svg xmlns="http://www.w3.org/2000/svg" viewBox="0 0 261.77 337.13"><defs><style>.cls-1{fill:#2a3131;}</style></defs><title>left-arrow_1</title><g id="Layer_2" data-name="Layer 2"><g id="Layer"><path class="cls-1" d="M245.41,3.86a52.51,52.51,0,0,1,4.43,8.24l6.44-2.75a59,59,0,0,0-5-9.35Z"/><path class="cls-1" d="M34.57,274.69l5.36,4.51-.48.57a93.37,93.37,0,0,0-10.28,15.17L23,291.62A100.58,100.58,0,0,1,34.06,275.3ZM57,254l4.18,5.61a141.34,141.34,0,0,0-14.71,12.52l-4.91-5A146.36,146.36,0,0,1,57,254ZM259.58,19.28a80.36,80.36,0,0,1,2.18,20.55l-7-.12a73.52,73.52,0,0,0-2-18.75ZM82.19,237.64l3.54,6c-6.55,3.84-11.84,7.13-16.64,10.36l-3.9-5.82C70.11,244.92,75.51,241.56,82.19,237.64Zm13.2-7.58q4.31-2.43,8.57-4.88c1.34-.78,2.68-1.55,4-2.34l3.54,6c-1.35.8-2.7,1.58-4.06,2.36-2.85,1.65-5.73,3.28-8.6,4.91l-4.57,2.6-3.47-6.08Zm165.66-180A127.19,127.19,0,0,1,257,70l-6.73-1.93a120.41,120.41,0,0,0,3.86-18.84Zm-128,157.21,3.85,5.85c-5.41,3.56-11.08,7.15-16.86,10.66l-3.63-6C122.14,214.33,127.74,210.79,133.08,207.27Zm24.11-17,4.22,5.58c-5.17,3.91-10.62,7.83-16.2,11.68l-4-5.77C146.74,198,152.11,194.13,157.19,190.29ZM253.85,79.65a193.1,193.1,0,0,1-7.76,18.61l-6.31-3a189,189,0,0,0,7.48-17.94Zm-73.87,92,4.65,5.24c-4.85,4.3-10,8.63-15.32,12.86L165,184.27C170.17,180.12,175.23,175.88,180,171.65Zm61.53-64.41c-3.13,5.8-6.63,11.6-10.4,17.24l-5.82-3.89c3.65-5.46,7-11.07,10.07-16.68ZM201,151.15l5.13,4.76c-4.43,4.77-9.19,9.56-14.12,14.22L187.21,165C192,160.48,196.68,155.81,201,151.15Zm24.33-18.43c-2.84,3.89-5.88,7.79-9,11.6v0q-1.71,2.07-3.46,4.09l-5.3-4.57c1.14-1.32,2.26-2.64,3.36-4l0,0c3.07-3.71,6-7.5,8.79-11.27Z"/><path class="cls-1" d="M18.63,301a79.38,79.38,0,0,0-3.2,10l6.79,1.69a72.33,72.33,0,0,1,2.92-9.07Z"/><path class="cls-1" d="M17.72,337.13c5.15-11.63,13.6-25.93,22.15-34.6l-20.38,6L0,300.07C7.42,309.72,14,325,17.72,337.13Z"/></g></g></svg>