<svg xmlns="http://www.w3.org/2000/svg" viewBox="0 0 503.9 380.1"><defs><style>.cls-1{fill:#2bb2ad;}.cls-1,.cls-2,.cls-3{fill-rule:evenodd;}.cls-2{fill:#ff9059;}.cls-3{fill:#fff;}</style></defs><title>rainbow_1</title><g id="Layer_2" data-name="Layer 2"><g id="Layer_1-2" data-name="Layer 1"><path class="cls-1" d="M0,380H56.8c1-16.6,4-32.7,6.4-49.3,7.4-51.7,13.2-106.4,38.7-153.1,19.8-36.3,65.4-81.2,105.7-92.2,19-5.2,38.3-7.8,57.9-9.8,4.1-.4,35.6,4.2,41.4,7.8,7.5,4.6,14.5,9.8,22,14.9,9.7,6.6,21.6,12.6,29.9,21,34,34,51.8,75,61.2,122.1,4.8,24,1.4,48.4,3,72.5,1.1,16.9,3.4,33.7,4.7,50.6.3,4.5.8,10,1,15.5h73.5a17.09,17.09,0,0,1,0-3.2,346.49,346.49,0,0,0,1-49.9c-1-19.8,2-40.2,0-59.9-7.3-73.3-28.3-139.4-76.5-196.3-11.2-13.2-26-22.5-39.3-33.3C340.9-.6,272.7-8,215.5,7.8c-10.5,2.9-28.8,3.3-38.2,9-22.7,8.7-44.7,19-58.3,27.5-10.8,6.8-19,15.9-28.6,23.9a129.91,129.91,0,0,0-10.6,9.4L44,131.5c-7.2,14.2-13.3,32.3-17.6,41.7-12.5,27.4-20,60.4-22.5,90.5-2.2,26-.2,52.4-2.4,78.4C1.2,345.7,0,365,0,380Z"/><path class="cls-2" d="M82.7,380c-1.8-25.1,3.3-50.7,5.2-75.4,4.7-61.5,28.4-131,83.2-165.9,27.3-17.4,58-24.6,90-24.6,60.9,0,95.6,35.8,114.8,93.7C392.8,259,397.3,380,397.3,380H341.7c-3-24.5-5.3-57.7-9.6-71.6-18.1-58.7-29.9-137.2-85.5-136.3-96.4,1.5-94.5,81.3-97.4,94.9a632.28,632.28,0,0,0-14,112.9l-52.5.1Z"/><path class="cls-3" d="M158.9,380a49.26,49.26,0,0,1-1-8.6c0-15-.6-31.3,1.8-46,1.6-9.6,2.1-19.7,4.3-29.3,1.9-8.3,6-13.6,10.1-20.7,14.1-24.6,20.8-32.3,45.7-43.6,11-5,33.1-7.2,45.7-2.4,39.9,14.9,45.4,61,46.9,84.2.8,12.6-.2,25.2.6,37.8.2,3,.4,16.9-.1,28.7H265.6c.1-11.1.1-23.3-.1-26.3-1.8-24.6-8.9-56.5-32.3-56.9-26.1-.5-28.8,39.8-27.8,53.5.8,10.9,3.6,20.5,4.4,29.7H158.9V380Z"/></g></g></svg>